<?xml version="1.0" standalone="no"?>
<!DOCTYPE svg PUBLIC "-//W3C//DTD SVG 1.1//EN" "http://www.w3.org/Graphics/SVG/1.1/DTD/svg11.dtd" >
<svg xmlns="http://www.w3.org/2000/svg">
<metadata></metadata>
<defs>
<font id="kelly_slabregular" horiz-adv-x="1110" >
<font-face units-per-em="2048" ascent="1638" descent="-410" />
<missing-glyph horiz-adv-x="716" />
<glyph horiz-adv-x="0" />
<glyph unicode="&#xd;" horiz-adv-x="1024" />
<glyph horiz-adv-x="0" />
<glyph horiz-adv-x="0" />
<glyph unicode=" "  horiz-adv-x="716" />
<glyph unicode="&#x09;" horiz-adv-x="716" />
<glyph unicode="&#xa0;" horiz-adv-x="716" />
<glyph unicode="!" horiz-adv-x="616" d="M223 395v1094h168v-1094h-168zM382 170q30 -33 30 -76t-30 -72.5t-73 -29.5t-73.5 29.5t-30.5 72.5t31.5 76t73.5 33t72 -33z" />
<glyph unicode="&#x22;" horiz-adv-x="667" d="M418 1044v492h168v-492h-168zM82 1044v492h168v-492h-168z" />
<glyph unicode="#" horiz-adv-x="1570" d="M1075 866l-55 -209h412l-37 -149h-416l-129 -508h-166l131 508h-266l-133 -508h-162l137 508h-350l41 149h346l53 209h-344l41 158h344l131 512h160l-131 -512h268l131 512h164l-129 -512h414l-41 -158h-414zM645 866l-59 -209h268l55 209h-264z" />
<glyph unicode="$" horiz-adv-x="1191" d="M524 -307v307h-360v379h147v-240h213v609l-196 120q-72 41 -118 85t-46 120v258q0 121 57 166q49 39 170 39h133v307h144v-307h342v-379h-148v240h-194v-541l168 -104q41 -29 76.5 -50.5t62.5 -46.5q53 -49 53 -120v-349q0 -92 -65 -141q-55 -45 -146 -45h-149v-307h-144 zM668 659v-520h196v400zM524 946v451h-196v-328z" />
<glyph unicode="%" horiz-adv-x="1689" d="M680 899q0 -74 -6 -124t-31 -79q-43 -55 -192 -55h-82q-147 0 -197 43q-49 45 -49 190v441q0 141 49 190q49 47 184 47h74q158 0 207 -53q43 -49 43 -209v-391zM537 772v645h-267v-645h267zM1311 907q164 0 211 -51q45 -51 45 -211v-393q0 -74 -7.5 -122t-31.5 -77 q-43 -53 -197 -53h-78q-147 0 -196 45q-51 45 -51 191v442q0 131 51 182q49 47 184 47h70zM1421 780h-266v-645h266v645zM1087 1782h158l-680 -2091h-159z" />
<glyph unicode="&#x26;" horiz-adv-x="1486" d="M1292 -12l-295 342v-76q0 -143 -41 -195q-49 -61 -196 -61h-391q-172 0 -213 59q-25 33 -29 88.5t-4 141.5v274l397 340l-188 225v166q0 147 28.5 186.5t72.5 54.5t122 15h133q174 0 221 -59q25 -33 32 -88t7 -141v-189l-221 -178l174 -209l244 201l98 -111l-246 -203 l408 -489zM637 1004l174 141v119q0 96 -14.5 115.5t-39 24.5t-69.5 5h-88q-84 0 -102.5 -18.5t-21.5 -44t-3 -64.5v-113zM737 137q84 0 99.5 18.5t17.5 43t2 65.5v234l-246 301l-350 -312v-204q0 -94 16.5 -115t43 -26t71.5 -5h346z" />
<glyph unicode="'" horiz-adv-x="413" d="M123 1047v489h168v-489h-168z" />
<glyph unicode="(" horiz-adv-x="559" d="M539 -309q-375 0 -375 559v1040q0 223 74 344q90 147 301 148v-105q-117 0 -174.5 -104.5t-57.5 -286.5v-1026q0 -330 127 -434q43 -37 105 -37v-98z" />
<glyph unicode=")" horiz-adv-x="559" d="M20 1782q209 0 304 -178q72 -139 71 -381v-1041q0 -223 -73 -344q-90 -147 -302 -147v104q117 0 174.5 104.5t57.5 286.5v1026q0 330 -125 435q-45 37 -107 36v99z" />
<glyph unicode="*" horiz-adv-x="833" d="M537 1212l211 -120l-60 -103l-213 113v-244h-119v246l-215 -117l-59 115l207 110l-203 123l55 105l215 -123v242h119v-242l217 119l60 -103z" />
<glyph unicode="+" horiz-adv-x="1236" d="M1073 860v-135h-383v-383h-143v383h-383v135h383v387h143v-387h383z" />
<glyph unicode="," horiz-adv-x="473" d="M190 -307h-149l158 508h151z" />
<glyph unicode="-" horiz-adv-x="923" d="M760 860v-135h-596v135h596z" />
<glyph unicode="." horiz-adv-x="452" d="M300 170q30 -33 30 -76t-30 -72.5t-73 -29.5t-73.5 29.5t-30.5 72.5t31.5 76t73.5 33t72 -33z" />
<glyph unicode="/" horiz-adv-x="858" d="M690 1782h158l-678 -2089h-160z" />
<glyph unicode="0" horiz-adv-x="1069" d="M709 1536q125 0 181 -68.5t56 -203.5v-985q0 -147 -49 -213t-178 -66h-352q-197 0 -232 147q-12 45 -12 101v1016q0 137 45 198q51 74 182 74h359zM287 139h495v1258h-495v-1258z" />
<glyph unicode="1" horiz-adv-x="716" d="M119 139h139v1256h-197v141h177q104 0 146 -45t42 -131v-1221h127v-139h-434v139z" />
<glyph unicode="2" horiz-adv-x="1075" d="M102 371q0 168 111 237l590 367v422h-539v-250h-160v389h596q152 0 213 -53q57 -49 58 -185v-239q0 -141 -101 -203l-608 -385v-332h539v189h172v-328h-871v371z" />
<glyph unicode="3" horiz-adv-x="1052" d="M950 1397l-501 -500h264q135 0 186 -55q49 -53 49 -185v-383q0 -68 -8 -120t-39 -84q-59 -70 -235 -70h-312q-225 0 -245 172q-6 51 -7 109v108h150v-262h530v637h-530v133l508 500h-508v-144h-150v283h848v-139z" />
<glyph unicode="4" horiz-adv-x="1062" d="M444 139h226v256h-650l648 1141h166v-1001h147v-140h-147v-256h147v-139h-537v139zM670 1231l-398 -696h398v696z" />
<glyph unicode="5" horiz-adv-x="1060" d="M766 936q117 0 158 -51q35 -45 34 -148v-489q0 -117 -33.5 -162t-81.5 -65.5t-128 -20.5h-381q-197 0 -223 147q-8 45 -9 99v143h160v-250h531v658h-668v739h772v-139h-612v-461h481z" />
<glyph unicode="6" horiz-adv-x="1075" d="M793 1407h-523v-500h447q205 0 244 -137q12 -43 12 -94v-416q0 -135 -67.5 -197.5t-221.5 -62.5h-301q-158 0 -219.5 60.5t-61.5 193.5v1038q0 170 134 224q47 20 112 20h377q168 0 197 -147q10 -43 10 -93v-45h-139v156zM805 766h-535v-627h535v627z" />
<glyph unicode="7" horiz-adv-x="931" d="M248 0h-187l701 1397h-553v-305h-148v444h850v-209z" />
<glyph unicode="8" horiz-adv-x="1075" d="M932 1028q0 -80 -38 -133t-85 -57q57 -4 106 -58q57 -61 58 -157v-349q0 -135 -67.5 -204.5t-221.5 -69.5h-301q-158 0 -219.5 70.5t-61.5 203.5v342q0 98 62 162q47 53 106 60q-45 4 -86 58t-41 132v264q0 170 125 224q45 20 111 20h321q119 0 181 -72q51 -61 51 -172 v-264zM805 754h-535v-615h535v615zM301 907h473v500h-473v-500z" />
<glyph unicode="9" horiz-adv-x="1075" d="M270 133h535v563h-447q-209 0 -243 138q-12 43 -13 94v348q0 135 68 197.5t221 62.5h301q158 0 219.5 -60.5t61.5 -193.5v-1038q0 -102 -57.5 -173t-188.5 -71h-389q-117 0 -180 70q-55 61 -56 170v45h168v-152zM270 838h535v559h-535v-559z" />
<glyph unicode=":" horiz-adv-x="452" d="M300 170q30 -33 30 -76t-30 -72.5t-73 -29.5t-73.5 29.5t-30.5 72.5t31.5 76t73.5 33t72 -33zM300 906q30 -32 30 -77t-30 -74.5t-73 -29.5t-73.5 29.5t-30.5 74.5t31.5 77t73.5 32t72 -32z" />
<glyph unicode=";" horiz-adv-x="495" d="M190 -307h-149l158 508h151zM341 906q32 -32 32 -77t-32 -74.5t-75 -29.5t-73.5 29.5t-30.5 74.5t31.5 77t73.5 32t74 -32z" />
<glyph unicode="&#x3c;" horiz-adv-x="1107" d="M123 698v156l924 444v-141l-775 -381l775 -383v-141z" />
<glyph unicode="=" horiz-adv-x="1155" d="M164 874v134h827v-134h-827zM164 561v131h827v-131h-827z" />
<glyph unicode="&#x3e;" horiz-adv-x="1107" d="M61 1298l924 -444v-156l-924 -446v141l775 383l-775 381v141z" />
<glyph unicode="?" horiz-adv-x="985" d="M821 922q0 -209 -192 -209h-264v-316h-164v277q0 96 47 138t147 42h250v543h-455v-234h-149v373h551q113 0 171 -45t58 -174v-395zM283 203q43 0 73.5 -33t30.5 -76t-30.5 -72.5t-73.5 -29.5t-74 29.5t-31 72.5t31 76t74 33z" />
<glyph unicode="A" horiz-adv-x="1312" d="M838 676l-183 721l-182 -721h365zM1262 139v-139h-400v139h111l-103 408h-430l-102 -408h113v-139h-400v139h129l357 1397h241l350 -1397h134z" />
<glyph unicode="B" horiz-adv-x="1140" d="M762 975q43 33 105.5 33t106.5 -43t44 -134v-651q0 -86 -27 -119q-53 -61 -155 -61h-713v139h129v1260h-127v137h428q209 0 209 -182v-379zM596 870v529h-176v-639zM854 868l-434 -272v-455h434v727z" />
<glyph unicode="C" horiz-adv-x="1075" d="M834 379h139v-379h-629q-172 0 -209 135q-12 39 -12 84v1096q0 150 104 201q39 20 97 20h649v-379h-139v240h-543v-1258h543v240z" />
<glyph unicode="D" horiz-adv-x="1236" d="M846 1536q152 0 210 -66.5t58 -201.5v-1000q0 -141 -65.5 -204.5t-202.5 -63.5h-723v139h129v1258h-129v139h723zM946 1397h-526v-1258h526v1258z" />
<glyph unicode="E" horiz-adv-x="1196" d="M858 1010v-430h-139v145h-289v-586h524v240h140v-379h-961v139h129v1258h-129v139h961v-379h-140v240h-524v-533h289v146h139z" />
<glyph unicode="F" horiz-adv-x="1196" d="M719 725h-289v-586h133v-139h-430v139h129v1258h-129v139h961v-379h-140v240h-524v-533h289v146h139v-430h-139v145z" />
<glyph unicode="G" d="M123 1300q0 236 219 236h645v-379h-164v240h-532v-1258h532v479l-284 -178v150l448 280v-870h-608q-145 0 -199 53q-57 55 -57 201v1046z" />
<glyph unicode="H" horiz-adv-x="1429" d="M1167 1397v-1258h129v-139h-422v139h125v586h-569v-586h125v-139h-422v139h129v1258h-129v139h422v-139h-125v-535h569v535h-125v139h422v-139h-129z" />
<glyph unicode="I" horiz-adv-x="757" d="M461 139h133v-139h-430v139h129v1258h-129v139h430v-139h-133v-1258z" />
<glyph unicode="J" horiz-adv-x="831" d="M698 1397h-133v-1157q0 -162 -112 -220q-43 -20 -107 -20h-305v139h356v1258h-131v139h432v-139z" />
<glyph unicode="K" horiz-adv-x="1239" d="M1178 139v-139h-234l-514 764v-625h133v-139h-430v139h129v1258h-129v139h430v-139h-141v-572l522 711h221v-139h-137l-426 -598l445 -660h131z" />
<glyph unicode="L" horiz-adv-x="1081" d="M133 139h129v1258h-129v139h430v-139h-133v-1258h430v240h139v-379h-866v139z" />
<glyph unicode="M" horiz-adv-x="1761" d="M133 1397v139h316l434 -895l430 895h315v-139h-129v-1258h129v-139h-430v139h133v1055l-387 -797h-129l-385 803v-1061h133v-139h-430v139h129v1258h-129z" />
<glyph unicode="N" horiz-adv-x="1472" d="M1339 1397h-129v-1397h-200l-580 1196v-1057h133v-139h-430v139h129v1258h-129v139h316l593 -1221v1082h-133v139h430v-139z" />
<glyph unicode="O" d="M750 1536q125 0 181 -68.5t56 -203.5v-985q0 -147 -49 -213t-178 -66h-393q-197 0 -232 147q-12 45 -12 101v1016q0 137 45 198q51 74 182 74h400zM287 139h536v1258h-536v-1258z" />
<glyph unicode="P" horiz-adv-x="1216" d="M864 1536q135 0 183 -51q47 -51 47 -203v-149q0 -117 -50 -170q-25 -27 -64.5 -51.5t-96.5 -59.5l-453 -283v-430h133v-139h-430v139h129v1256h-129v141h731zM944 1395h-514v-662l514 318v344z" />
<glyph unicode="Q" d="M750 1536q125 0 181 -68.5t56 -203.5v-985q0 -147 -49 -213t-178 -66h-123v-123h-164v123h-106q-197 0 -232 147q-12 45 -12 101v1016q0 137 45 198q51 74 182 74h400zM473 242h164v-103h186v1258h-536v-1258h186v103z" />
<glyph unicode="R" horiz-adv-x="1323" d="M1292 139v-139h-405v139h110l-350 563l-217 -133v-430h133v-139h-430v139h129v1258h-129v139h731q135 0 182.5 -52t47.5 -204v-127q0 -78 -14.5 -123t-51.5 -81t-98.5 -72.5t-155.5 -94.5l404 -643h114zM430 733l514 318v346h-514v-664z" />
<glyph unicode="S" d="M795 752q41 -29 76.5 -50.5t62.5 -46.5q53 -49 53 -120v-349q0 -92 -65 -141q-55 -45 -146 -45h-653v379h147v-240h553v400l-536 329q-72 41 -118 85t-46 120v258q0 121 57 166q49 39 170 39h619v-379h-148v240h-534v-328z" />
<glyph unicode="T" horiz-adv-x="1083" d="M328 139h129v1258h-258v-242h-148v381h981v-381h-149v242h-258v-1258h133v-139h-430v139z" />
<glyph unicode="U" horiz-adv-x="1396" d="M434 0q-182 0 -182 203v1194h-129v139h430v-139h-133v-1258h557v1258h-133v139h430v-139h-129v-1184q0 -213 -184 -213h-527z" />
<glyph unicode="V" horiz-adv-x="1310" d="M51 1536h375v-139h-107l338 -1258l336 1258h-129v139h396v-139h-111l-375 -1397h-235l-373 1397h-115v139z" />
<glyph unicode="W" horiz-adv-x="1712" d="M1661 1536v-139h-98l-220 -1397h-266l-221 1395l-221 -1395h-266l-219 1397h-99v139h338v-139h-82l195 -1258l215 1397h278l215 -1397l195 1258h-82v139h338z" />
<glyph unicode="X" horiz-adv-x="1208" d="M1157 139v-139h-213l-338 639l-338 -639h-217v139h117l350 668l-309 590h-123v139h225l293 -565l297 565h221v-139h-121l-311 -590l354 -668h113z" />
<glyph unicode="Y" horiz-adv-x="1138" d="M1087 1536v-139h-77l-359 -641v-617h133v-139h-430v139h129v617l-340 641h-92v139h332v-139h-74l260 -500l267 500h-74v139h325z" />
<glyph unicode="Z" horiz-adv-x="1067" d="M238 139h604v234h143v-373h-924v147l773 1250h-572v-230h-145v369h889v-147z" />
<glyph unicode="[" horiz-adv-x="530" d="M311 -305q-74 0 -110.5 29.5t-36.5 103.5v1819q0 74 37 104.5t110 30.5h209v-101h-213v-1884h213v-102h-209z" />
<glyph unicode="\" horiz-adv-x="858" d="M10 1782h160l678 -2089h-158z" />
<glyph unicode="]" horiz-adv-x="530" d="M219 1782q74 0 111 -30t37 -103v-1819q0 -74 -37 -104.5t-111 -30.5h-209v100h213v1884h-213v103h209z" />
<glyph unicode="^" horiz-adv-x="1220" d="M1057 768h-142l-299 623l-309 -623h-143l393 768h127z" />
<glyph unicode="_" d="M10 -147h1090v-82h-1090v82z" />
<glyph unicode="`" horiz-adv-x="372" d="M367 1145h-150l-215 252h145z" />
<glyph unicode="a" horiz-adv-x="1009" d="M928 139v-139h-713q-104 0 -141 41q-33 37 -33 139v76q0 74 18 100q27 39 121 97l451 280v152h-402v-119h-131v258h512q104 0 146.5 -45t42.5 -131v-709h129zM631 569l-426 -266v-164h426v430z" />
<glyph unicode="b" horiz-adv-x="1079" d="M727 1016q45 29 105.5 28.5t102.5 -45.5t42 -131v-688q0 -84 -27 -119q-49 -61 -149 -61h-719v139h129v1258h-129v139h297v-739zM813 905l-434 -272v-494h434v766z" />
<glyph unicode="c" horiz-adv-x="872" d="M791 0h-510q-147 0 -170 111q-8 33 -9 69v664q0 86 48.5 134t146.5 48h494v-260h-140v119h-385v-746h385v119h140v-258z" />
<glyph unicode="d" horiz-adv-x="1079" d="M997 141v-141h-297v236l-354 -224q-63 -33 -119.5 -32.5t-90.5 41t-34 94.5v716q0 94 29 130q49 63 156 63h413v373h-135v139h303v-1395h129zM700 885h-434v-756l434 270v486z" />
<glyph unicode="e" horiz-adv-x="952" d="M102 823q0 203 211 203h346q100 0 145.5 -39t45.5 -143v-191l-584 -368v-146h422v119h162v-108q0 -61 -38 -105.5t-126 -44.5h-420q-88 0 -126 44t-38 106v673zM266 451l420 264v170h-420v-434z" />
<glyph unicode="f" horiz-adv-x="679" d="M406 877v-738h165v-139h-489v139h164v738h-164v147h164v299q0 117 45 165t137 48h170v-139h-192v-373h165v-147h-165z" />
<glyph unicode="g" horiz-adv-x="1071" d="M860 885v-1157q0 -86 -42 -131.5t-146 -45.5h-496v279h139v-137h377v534l-350 -221q-45 -27 -99.5 -26.5t-97.5 42t-43 103.5v719q0 100 27 131q45 49 147 49h713v-139h-129zM692 885h-430v-762l430 270v492z" />
<glyph unicode="h" horiz-adv-x="1163" d="M1081 139v-139h-395v139h98v758l-407 -256v-502h100v-139h-395v139h129v1258h-129v139h295v-729l340 213q39 25 92 24.5t97 -42t44 -119.5v-744h131z" />
<glyph unicode="i" horiz-adv-x="614" d="M399 139h133v-139h-430v139h129v746h-129v139h297v-885zM388 1369q30 -32 30 -76t-30 -73.5t-74 -29.5t-73.5 29.5t-29.5 73.5t30.5 76t73.5 32t73 -32z" />
<glyph unicode="j" horiz-adv-x="540" d="M418 -233q0 -86 -42 -131.5t-147 -45.5h-249v142h270v1153h-129v139h297v-1257zM388 1369q30 -32 30 -76t-30 -73.5t-74 -29.5t-73.5 29.5t-29.5 73.5t30.5 76t73.5 32t73 -32z" />
<glyph unicode="k" horiz-adv-x="1038" d="M997 139v-139h-176l-444 516v-377h123v-139h-418v139h131v1258h-131v139h287v-971l467 459h159v-139h-112l-334 -342l342 -404h106z" />
<glyph unicode="l" horiz-adv-x="634" d="M399 139h133v-139h-430v139h129v1258h-129v139h297v-1397z" />
<glyph unicode="m" horiz-adv-x="1673" d="M1300 1044q160 0 160 -157v-748h131v-139h-395v139h98v762l-374 -233v-529h100v-139h-367v139h99l2 8v756l-377 -235v-529h100v-139h-395v139h129v748h-129v137h295v-195l309 195q33 20 74 20q160 0 160 -157v-56l307 193q32 20 73 20z" />
<glyph unicode="n" horiz-adv-x="1163" d="M791 1044q160 0 159 -157v-748h131v-139h-395v139h98v762l-407 -256v-506h100v-139h-395v139h129v748h-129v137h295v-213l340 213q33 20 74 20z" />
<glyph unicode="o" horiz-adv-x="923" d="M272 0q-104 0 -147 48t-43 134v660q0 82 38 132t152 50h379q113 0 152 -50t39 -132v-660q0 -86 -43 -134t-148 -48h-379zM248 139h428v746h-428v-746z" />
<glyph unicode="p" horiz-adv-x="1079" d="M379 139h434v760l-434 -272v-488zM84 -373h127v1256h-129v141h297v-233l354 223q49 31 104.5 30.5t97.5 -34t42 -99.5v-718q0 -94 -27 -130q-51 -63 -157 -63h-414v-373h135v-139h-430v139z" />
<glyph unicode="q" horiz-adv-x="1099" d="M266 119l434 274v492h-434v-766zM571 -373h129v600l-348 -219q-45 -29 -105.5 -28.5t-102.5 45.5t-42 131v688q0 84 27 119q49 61 150 61h718v-139h-129v-1258h129v-139h-426v139z" />
<glyph unicode="r" horiz-adv-x="944" d="M702 1024q160 0 160 -158v-182h-166v199l-319 -203v-541h100v-139h-395v139h129v748h-129v139h295v-180l252 158q32 20 73 20z" />
<glyph unicode="s" horiz-adv-x="899" d="M797 180q0 -180 -176 -180h-496v309h139v-170h369v170l-336 211q-51 33 -88 53.5t-62 40.5q-45 41 -45 111v117q0 86 29 119q55 63 164 63h477v-307h-139v168h-369v-172l348 -217q43 -27 77 -46.5t56 -39.5q51 -43 52 -103v-127z" />
<glyph unicode="t" horiz-adv-x="649" d="M393 1397v-373h166v-147h-166v-738h195v-139h-172q-92 0 -137.5 48t-45.5 165v664h-151v147h151v373h160z" />
<glyph unicode="u" horiz-adv-x="1163" d="M373 -4q-160 0 -160 158v733h-131v139h297v-887l407 256v492h-100v139h266v-887h129v-139h-295v229l-340 -213q-32 -20 -73 -20z" />
<glyph unicode="v" horiz-adv-x="1050" d="M418 1024v-139h-101l205 -746l209 746h-100v139h379v-139h-123l-248 -885h-227l-250 885h-121v139h377z" />
<glyph unicode="w" horiz-adv-x="1499" d="M41 1024h326v-139h-91l166 -744l191 883h225l197 -887l168 748h-93v139h328v-139h-98l-195 -885h-219l-194 887l-199 -887h-229l-15 66q-14 68 -35.5 166t-46 212.5t-46 213t-38.5 161.5l-14 66h-88v139z" />
<glyph unicode="x" horiz-adv-x="1040" d="M176 139l258 391l-235 355h-121v139h196l250 -369l234 369h200v-139h-114l-236 -355l256 -391h115v-139h-193l-262 408l-260 -408h-203v139h115z" />
<glyph unicode="y" horiz-adv-x="1054" d="M952 1024v-1296q0 -86 -42 -131.5t-146 -45.5h-473v279h139v-137h354v538l-360 -223q-47 -29 -94 -28q-47 0 -82 31.5t-35 101.5v772h-131v139h297v-883l407 256v488h-100v139h266z" />
<glyph unicode="z" horiz-adv-x="925" d="M82 0v141l567 744h-416v-146h-141v285h735v-145l-563 -740h436v142h144v-281h-762z" />
<glyph unicode="{" horiz-adv-x="673" d="M432 1071q0 -244 -211 -332q211 -88 211 -331v-248q0 -197 26.5 -261.5t71.5 -94t123 -29.5v-84q-229 0 -305 110q-37 53 -46 132t-9 182v293q0 211 -191 290v82q190 80 191 291v293q0 100 9 180t46 133q76 111 305 111v-84q-143 0 -190 -111q-31 -78 -31 -274v-248z" />
<glyph unicode="|" horiz-adv-x="552" d="M205 -309v2093h143v-2093h-143z" />
<glyph unicode="}" horiz-adv-x="673" d="M453 739q-211 88 -211 332v248q0 197 -27 261.5t-72 94t-123 29.5v84q229 0 306 -111q37 -53 46 -133t9 -180v-293q0 -211 190 -291v-82q-190 -80 -190 -290v-293q0 -102 -9.5 -181t-45.5 -133q-76 -111 -306 -110v84q143 0 189 110q33 78 33 275v248q0 243 211 331z" />
<glyph unicode="~" horiz-adv-x="1218" d="M82 588q145 201 291 200q92 0 262 -79q63 -31 116.5 -56.5t90.5 -25.5q96 0 174 86q23 25 41 47l80 -74q-156 -188 -293 -188q-66 0 -183.5 54t-179 78.5t-99.5 24.5t-62.5 -7t-47.5 -25q-41 -31 -98 -105z" />
<glyph unicode="&#xa1;" horiz-adv-x="616" d="M391 1085v-1093h-168v1093h168zM382 1459.5q30 -29.5 30 -73t-30 -76t-72 -32.5t-73.5 32.5t-31.5 76t30.5 73t73.5 29.5t73 -29.5z" />
<glyph unicode="&#xa2;" horiz-adv-x="925" d="M430 -240v240h-149q-147 0 -170 111q-8 33 -9 69v664q0 86 48.5 134t146.5 48h133v174h121v-174h274v-260h-139v119h-135v-746h135v119h139v-258h-274v-240h-121zM266 139h164v746h-164v-746z" />
<glyph unicode="&#xa3;" horiz-adv-x="1087" d="M406 877v-738h436v240h139v-379h-913v139h178v738h-178v147h178v299q0 117 45 165t137 48h250v-139h-272v-373h245v-147h-245z" />
<glyph unicode="&#xa4;" horiz-adv-x="991" d="M776 283q-111 -98 -274.5 -98.5t-272.5 96.5l-98 -101l-76 76l101 100q-98 115 -95 269q0 168 95 270l-101 100l76 76l98 -100q123 96 270.5 96t276.5 -96l98 100l76 -74l-102 -102q94 -106 94 -269t-94 -270l102 -102l-76 -74zM201 623q0 -63 23.5 -120t64.5 -100 q88 -92 213 -92q127 0 217 95q86 90 86 219q0 125 -88 219q-84 92 -215 92q-125 0 -213 -92q-88 -90 -88 -221z" />
<glyph unicode="&#xa5;" horiz-adv-x="1138" d="M651 444v-305h133v-139h-430v139h129v305h-327v131h329v183h-329v133h256l-269 506h-92v139h332v-139h-74l260 -500l267 500h-74v139h325v-139h-77l-283 -506h256v-135h-332v-181h332v-131h-332z" />
<glyph unicode="&#xa6;" horiz-adv-x="530" d="M346 1536v-739h-141v739h141zM346 434v-741h-141v741h141z" />
<glyph unicode="&#xa7;" horiz-adv-x="1150" d="M1028 682q0 -127 -16 -166q-33 -72 -125 -76q104 -4 112 -141q2 -39 2 -78v-127q0 -166 -67 -209q-37 -20 -90 -24t-127 -4h-285q-182 0 -233 47q-29 27 -36 71.5t-7 112.5v135h149v-223h535v365h-443q-174 0 -221 41q-53 45 -53 212v246q0 127 16.5 166t45 56.5 t79.5 19.5q-100 0 -112 94q-2 29 -2 60v182q0 166 67 209q37 20 90 24t127 4h285q182 0 233 -47q29 -27 36 -71.5t7 -112.5v-135h-149v223h-535v-360h443q174 0 221 -41q53 -45 53 -213v-240zM866 1024h-577v-508h577v508z" />
<glyph unicode="&#xa8;" horiz-adv-x="481" d="M152.5 1295.5q25.5 -27.5 25.5 -64.5t-25.5 -62.5t-62.5 -25.5t-62.5 25.5t-25.5 62.5t26.5 64.5t62.5 27.5t61.5 -27.5zM455.5 1295.5q25.5 -27.5 25.5 -64.5t-25.5 -62.5t-62.5 -25.5t-62.5 25.5t-25.5 62.5t26.5 64.5t62.5 27.5t61.5 -27.5z" />
<glyph unicode="&#xa9;" horiz-adv-x="1814" d="M1629.5 1070q62.5 -144 62.5 -307t-62.5 -306.5t-169 -250t-251 -168t-307.5 -61.5t-306 61.5t-250.5 168t-170 250t-62.5 306.5t62.5 307t170 252t251.5 170t307 62t306.5 -62t250 -170t169 -252zM1501 509q51 118 51 252t-51 253t-139 208t-206 141t-253 52t-255 -51 t-210 -139q-190 -193 -190 -461t190 -461q90 -88 210 -139t255 -51q268 0 459 190q88 88 139 206zM1192 274h-483q-137 0 -160 105q-8 31 -8 65v627q0 82 46 127t138 45h467v-246h-133v113h-363v-704h363v112h133v-244z" />
<glyph unicode="&#xaa;" horiz-adv-x="692" d="M426 1536q133 0 133 -125v-436h113v-115h-502q-76 0 -100.5 29t-24.5 100v47q0 49 21.5 76t74.5 62l285 176v71h-244v-96h-108v211h352zM426 1217l-250 -154v-88h250v242z" />
<glyph unicode="&#xab;" horiz-adv-x="907" d="M494 233l-113 -83l-320 403l316 434l117 -82l-261 -352zM887 233l-113 -83l-319 403l315 434l117 -82l-260 -352z" />
<glyph unicode="&#xac;" horiz-adv-x="1329" d="M1010 725h-922v137h1071v-692h-149v555z" />
<glyph unicode="&#xad;" horiz-adv-x="770" d="M106 487v129h560v-129h-560z" />
<glyph unicode="&#xae;" horiz-adv-x="1841" d="M1629.5 1070q62.5 -144 62.5 -307t-62.5 -306.5t-169 -250t-251 -168t-307.5 -61.5t-306 61.5t-250.5 168t-170 250t-62.5 306.5t62.5 307t170 252t251.5 170t307 62t306.5 -62t250 -170t169 -252zM1501 509q51 118 51 252t-51 253t-139 208t-206 141t-253 52t-255 -51 t-210 -139q-190 -193 -190 -461t190 -461q90 -88 210 -139t255 -51q268 0 459 190q88 88 139 206zM528 1096v131h570q70 0 122 -33t52 -111v-108q0 -78 -39 -116t-86 -66l-88 -56l82 -309h143v-123h-102q-80 0 -123 40t-66 124l-51 190l-154 -94v-137h103v-123h-363v123h115 v668h-115zM788 700l347 222v174h-347v-396z" />
<glyph unicode="&#xaf;" horiz-adv-x="522" d="M0 1307h522v-129h-522v129z" />
<glyph unicode="&#xb0;" horiz-adv-x="770" d="M76 1327q0 133 92 221q94 92 225 92q127 0 219.5 -92t92.5 -223q0 -133 -93 -223q-94 -90 -221 -90q-131 0 -223 92t-92 223zM184 1331q0 -43 16.5 -81t45.5 -66q57 -61 145 -62q84 0 144.5 60.5t60.5 144.5q0 86 -60.5 146.5t-142.5 60.5q-88 0 -148.5 -60.5 t-60.5 -142.5z" />
<glyph unicode="&#xb1;" horiz-adv-x="1236" d="M1073 995v-135h-383v-342h-143v342h-383v135h383v348h143v-348h383zM164 383h909v-135h-909v135z" />
<glyph unicode="&#xb2;" horiz-adv-x="595" d="M90 1024q0 78 57 115l273 149v160h-225v-107h-103v195h295q78 0 109.5 -24.5t31.5 -90.5v-104q0 -68 -63.5 -102.5t-132 -74.5t-139.5 -81v-113h227v80h108v-166h-438v164z" />
<glyph unicode="&#xb3;" horiz-adv-x="606" d="M528 1456l-219 -192h90q72 0 99.5 -27t27.5 -90v-156q0 -72 -20 -92q-37 -39 -129 -39h-152q-121 0 -131 82q-4 23 -4 51v62h100v-115h228v238h-256v77l223 193h-195v-62h-100v150h438v-80z" />
<glyph unicode="&#xb4;" horiz-adv-x="372" d="M221 1397h146l-215 -252h-150z" />
<glyph unicode="&#xb6;" d="M53 1210q0 328 424 328h494v-1745h-140v1641h-237v-1641h-141l2 1096q-180 0 -291 90q-111 88 -111 231z" />
<glyph unicode="&#xb7;" horiz-adv-x="452" d="M300 614.5q30 -32.5 30 -75.5t-30 -73t-73 -30t-73.5 30t-30.5 73t31.5 75.5t73.5 32.5t72 -32.5z" />
<glyph unicode="&#xb8;" horiz-adv-x="348" d="M0 4h121v-90h76q78 0 114.5 -39t36.5 -104v-76q0 -57 -26.5 -98t-112.5 -41h-209v108h221v137h-221v203z" />
<glyph unicode="&#xb9;" horiz-adv-x="348" d="M143 1536q92 0 93 -84v-498h88v-94h-291v94h94v486h-119v96h135z" />
<glyph unicode="&#xba;" horiz-adv-x="630" d="M354 1536q162 0 201 -53q23 -29 29 -80t6 -129v-162q0 -74 -4 -122t-24.5 -77.5t-63.5 -41t-123 -11.5h-103q-141 0 -184 45q-41 41 -41 191v211q0 135 42 182t171 47h94zM487 1444h-337v-492h337v492z" />
<glyph unicode="&#xbb;" horiz-adv-x="907" d="M414 903l112 84l320 -403l-316 -434l-116 81l260 353zM20 903l113 84l320 -403l-316 -434l-117 81l261 353z" />
<glyph unicode="&#xbf;" horiz-adv-x="985" d="M41 606q0 209 192 209h265v315h164v-276q0 -96 -47.5 -138t-147.5 -42h-250v-543h455v234h149v-373h-551q-113 0 -171 45t-58 174v395zM580 1325q-43 0 -74 33t-31 76t31 72.5t74 29.5t73.5 -29.5t30.5 -72.5t-30.5 -76t-73.5 -33z" />
<glyph unicode="&#xc0;" horiz-adv-x="1312" d="M838 676l-183 721l-182 -721h365zM1262 139v-139h-400v139h111l-103 408h-430l-102 -408h113v-139h-400v139h129l357 1397h241l350 -1397h134zM838 1657h-150l-215 252h145z" />
<glyph unicode="&#xc1;" horiz-adv-x="1312" d="M473 676l182 721l183 -721h-365zM1128 139l-350 1397h-241l-357 -1397h-129v-139h400v139h-113l102 408h430l103 -408h-111v-139h400v139h-134zM692 1909h146l-215 -252h-150z" />
<glyph unicode="&#xc2;" horiz-adv-x="1312" d="M838 676l-183 721l-182 -721h365zM1262 139v-139h-400v139h111l-103 408h-430l-102 -408h113v-139h-400v139h129l357 1397h241l350 -1397h134zM948 1657h-149l-142 164l-143 -164h-152l230 252h137z" />
<glyph unicode="&#xc3;" horiz-adv-x="1312" d="M838 676l-183 721l-182 -721h365zM1262 139v-139h-400v139h111l-103 408h-430l-102 -408h113v-139h-400v139h129l357 1397h241l350 -1397h134zM993 1819q-16 -47 -57 -86q-82 -72 -148 -72q-49 0 -113.5 38t-98 55.5t-67.5 17.5t-56.5 -20.5t-51.5 -80.5l-84 62 q14 45 56 82q76 74 125 73.5t91 -18t80 -39t68.5 -38.5t60 -17t65.5 30.5t52 69.5z" />
<glyph unicode="&#xc4;" horiz-adv-x="1312" d="M838 676l-183 721l-182 -721h365zM1262 139v-139h-400v139h111l-103 408h-430l-102 -408h113v-139h-400v139h129l357 1397h241l350 -1397h134zM566.5 1807.5q25.5 -27.5 25.5 -64.5t-25.5 -62.5t-62.5 -25.5t-62.5 25.5t-25.5 62.5t26.5 64.5t62.5 27.5t61.5 -27.5z M869.5 1807.5q25.5 -27.5 25.5 -64.5t-25.5 -62.5t-62.5 -25.5t-62.5 25.5t-25.5 62.5t26.5 64.5t62.5 27.5t61.5 -27.5z" />
<glyph unicode="&#xc5;" horiz-adv-x="1312" d="M838 676l-183 721l-182 -721h365zM1262 139v-139h-400v139h111l-103 408h-430l-102 -408h113v-139h-400v139h129l357 1397h241l350 -1397h134zM526.5 1917q53.5 53 130.5 53q74 0 127.5 -53t53.5 -129t-53.5 -129t-129.5 -53q-78 0 -129 53q-53 57 -53 131t53.5 127z M573 1790q0 -35 24 -59.5t58 -24.5q35 0 59.5 24.5t24.5 58.5t-24.5 58.5t-58 24.5t-58.5 -23.5t-25 -58.5z" />
<glyph unicode="&#xc6;" horiz-adv-x="1753" d="M1456 139v240h139v-379h-802v143h129v580h-353l-204 -584h122v-139h-397v139h119l446 1258h-161v139h1101v-379h-139v240h-366v-537h344v-137h-344v-582zM618 860h304v537h-113z" />
<glyph unicode="&#xc7;" horiz-adv-x="1075" d="M362 0h-18q-172 0 -209 135q-12 39 -12 84v1096q0 150 104 201q39 20 97 20h649v-379h-139v240h-543v-1258h543v240h139v-379h-490v-86h76q78 0 115 -39t37 -104v-76q0 -57 -27 -98t-113 -41h-209v108h222v137h-222v199z" />
<glyph unicode="&#xc8;" horiz-adv-x="1196" d="M858 1010v-430h-139v145h-289v-586h524v240h140v-379h-961v139h129v1258h-129v139h961v-379h-140v240h-524v-533h289v146h139zM780 1657h-149l-215 252h145z" />
<glyph unicode="&#xc9;" horiz-adv-x="1196" d="M719 1010v-146h-289v533h524v-240h140v379h-961v-139h129v-1258h-129v-139h961v379h-140v-240h-524v586h289v-145h139v430h-139zM635 1909h145l-215 -252h-149z" />
<glyph unicode="&#xca;" horiz-adv-x="1196" d="M858 1010v-430h-139v145h-289v-586h524v240h140v-379h-961v139h129v1258h-129v139h961v-379h-140v240h-524v-533h289v146h139zM891 1657h-150l-141 164l-143 -164h-152l230 252h137z" />
<glyph unicode="&#xcb;" horiz-adv-x="1196" d="M858 1010v-430h-139v145h-289v-586h524v240h140v-379h-961v139h129v1258h-129v139h961v-379h-140v240h-524v-533h289v146h139zM509 1807.5q26 -27.5 26 -64.5t-26 -62.5t-62.5 -25.5t-62.5 25.5t-26 62.5t27 64.5t62.5 27.5t61.5 -27.5zM812 1807.5q26 -27.5 26 -64.5 t-26 -62.5t-62.5 -25.5t-62 25.5t-25.5 62.5t26.5 64.5t62 27.5t61.5 -27.5z" />
<glyph unicode="&#xcc;" horiz-adv-x="757" d="M461 139h133v-139h-430v139h129v1258h-129v139h430v-139h-133v-1258zM561 1657h-149l-215 252h145z" />
<glyph unicode="&#xcd;" horiz-adv-x="757" d="M461 1397h133v139h-430v-139h129v-1258h-129v-139h430v139h-133v1258zM416 1909h145l-215 -252h-149z" />
<glyph unicode="&#xce;" horiz-adv-x="757" d="M461 139h133v-139h-430v139h129v1258h-129v139h430v-139h-133v-1258zM672 1657h-150l-141 164l-143 -164h-152l229 252h138z" />
<glyph unicode="&#xcf;" horiz-adv-x="757" d="M461 139h133v-139h-430v139h129v1258h-129v139h430v-139h-133v-1258zM289.5 1807.5q25.5 -27.5 25.5 -64.5t-25.5 -62.5t-62.5 -25.5t-62.5 25.5t-25.5 62.5t27 64.5t62.5 27.5t61 -27.5zM592.5 1807.5q25.5 -27.5 25.5 -64.5t-25.5 -62.5t-62 -25.5t-62.5 25.5t-26 62.5 t27 64.5t62.5 27.5t61 -27.5z" />
<glyph unicode="&#xd0;" horiz-adv-x="1236" d="M252 862v535h-129v139h723q152 0 210 -66.5t58 -201.5v-1000q0 -141 -65.5 -204.5t-202.5 -63.5h-723v139h129v588h-137v135h137zM946 1397h-526v-535h291v-135h-291v-588h526v1258z" />
<glyph unicode="&#xd1;" horiz-adv-x="1472" d="M1339 1397h-129v-1397h-200l-580 1196v-1057h133v-139h-430v139h129v1258h-129v139h316l593 -1221v1082h-133v139h430v-139zM1073 1819q-16 -47 -57 -86q-82 -72 -148 -72q-49 0 -113.5 38t-98 55.5t-67.5 17.5t-56.5 -20.5t-51.5 -80.5l-84 62q14 45 56 82 q76 74 125 73.5t91 -18t79.5 -39t68.5 -38.5t60.5 -17t65.5 30.5t52 69.5z" />
<glyph unicode="&#xd2;" d="M750 1536q125 0 181 -68.5t56 -203.5v-985q0 -147 -49 -213t-178 -66h-393q-197 0 -232 147q-12 45 -12 101v1016q0 137 45 198q51 74 182 74h400zM287 139h536v1258h-536v-1258zM737 1657h-149l-215 252h145z" />
<glyph unicode="&#xd3;" d="M350 1536q-188 0 -219 -160q-8 -49 -8 -112v-1016q0 -182 127 -232q45 -16 117 -16h393q129 0 178 65.5t49 213.5v985q0 135 -56.5 203.5t-180.5 68.5h-400zM287 1397h536v-1258h-536v1258zM592 1909h145l-215 -252h-149z" />
<glyph unicode="&#xd4;" d="M750 1536q125 0 181 -68.5t56 -203.5v-985q0 -147 -49 -213t-178 -66h-393q-197 0 -232 147q-12 45 -12 101v1016q0 137 45 198q51 74 182 74h400zM287 139h536v1258h-536v-1258zM848 1657h-150l-141 164l-143 -164h-152l230 252h137z" />
<glyph unicode="&#xd5;" d="M750 1536q125 0 181 -68.5t56 -203.5v-985q0 -147 -49 -213t-178 -66h-393q-197 0 -232 147q-12 45 -12 101v1016q0 137 45 198q51 74 182 74h400zM287 139h536v1258h-536v-1258zM893 1819q-16 -47 -57 -86q-82 -72 -148 -72q-49 0 -113.5 38t-98.5 55.5t-67.5 17.5 t-56 -20.5t-51.5 -80.5l-84 62q14 45 55 82q76 74 125 73.5t91 -18t80 -39t69 -38.5t60.5 -17t65.5 30.5t52 69.5z" />
<glyph unicode="&#xd6;" d="M750 1536q125 0 181 -68.5t56 -203.5v-985q0 -147 -49 -213t-178 -66h-393q-197 0 -232 147q-12 45 -12 101v1016q0 137 45 198q51 74 182 74h400zM287 139h536v1258h-536v-1258zM466 1807.5q26 -27.5 26 -64.5t-26 -62.5t-62.5 -25.5t-62.5 25.5t-26 62.5t27 64.5 t62.5 27.5t61.5 -27.5zM769 1807.5q26 -27.5 26 -64.5t-26 -62.5t-62.5 -25.5t-62.5 25.5t-26 62.5t27 64.5t62.5 27.5t61.5 -27.5z" />
<glyph unicode="&#xd7;" horiz-adv-x="763" d="M750 520l-95 -94l-272 270l-272 -272l-101 100l273 273l-271 270l94 96l273 -270l272 274l103 -102l-275 -274z" />
<glyph unicode="&#xd8;" d="M268 10q-84 23 -114.5 85.5t-30.5 152.5v1016q0 137 45 198q51 74 182 74h352l39 137h138l-43 -149q152 -41 151 -260v-985q0 -147 -49 -213t-178 -66h-357l-43 -156h-139zM801 1397l-357 -1258h379v1258h-22zM287 139h18l357 1258h-375v-1258z" />
<glyph unicode="&#xd9;" horiz-adv-x="1396" d="M434 0q-182 0 -182 203v1194h-129v139h430v-139h-133v-1258h557v1258h-133v139h430v-139h-129v-1184q0 -213 -184 -213h-527zM881 1657h-150l-215 252h146z" />
<glyph unicode="&#xda;" horiz-adv-x="1396" d="M961 0q184 0 184 213v1184h129v139h-430v-139h133v-1258h-557v1258h133v139h-430v-139h129v-1194q0 -203 182 -203h527zM735 1909h146l-215 -252h-150z" />
<glyph unicode="&#xdb;" horiz-adv-x="1396" d="M434 0q-182 0 -182 203v1194h-129v139h430v-139h-133v-1258h557v1258h-133v139h430v-139h-129v-1184q0 -213 -184 -213h-527zM991 1657h-149l-142 164l-143 -164h-151l229 252h137z" />
<glyph unicode="&#xdc;" horiz-adv-x="1396" d="M434 0q-182 0 -182 203v1194h-129v139h430v-139h-133v-1258h557v1258h-133v139h430v-139h-129v-1184q0 -213 -184 -213h-527zM609.5 1807.5q25.5 -27.5 25.5 -64.5t-25.5 -62.5t-62.5 -25.5t-62.5 25.5t-25.5 62.5t26.5 64.5t62.5 27.5t61.5 -27.5zM912.5 1807.5 q25.5 -27.5 25.5 -64.5t-25.5 -62.5t-62.5 -25.5t-62.5 25.5t-25.5 62.5t26.5 64.5t62.5 27.5t61.5 -27.5z" />
<glyph unicode="&#xdd;" horiz-adv-x="1138" d="M762 1536v-139h74l-267 -500l-260 500h74v139h-332v-139h92l340 -641v-617h-129v-139h430v139h-133v617l359 641h77v139h-325zM606 1909h146l-215 -252h-150z" />
<glyph unicode="&#xde;" horiz-adv-x="1216" d="M864 1268q135 0 183 -51q47 -51 47 -203v-150q0 -117 -50 -168q-25 -29 -64.5 -53.5t-96.5 -58.5l-453 -283v-162h133v-139h-430v139h129v1256h-129v141h430v-141h-131v-127h432zM944 1126h-514v-661l514 317v344z" />
<glyph unicode="&#xdf;" horiz-adv-x="1124" d="M426 0h-324v139h164v1184q0 117 45 165t138 48h280q119 0 180 -72q51 -61 52 -172v-264q0 -78 -36 -132t-83 -58q59 -10 94 -50q66 -74 65 -165v-349q0 -135 -67.5 -204.5t-220.5 -69.5h-148v139h269v615h-269v153h238v490h-377v-1397z" />
<glyph unicode="&#xe0;" horiz-adv-x="1009" d="M928 139v-139h-713q-104 0 -141 41q-33 37 -33 139v76q0 74 18 100q27 39 121 97l451 280v152h-402v-119h-131v258h512q104 0 146.5 -45t42.5 -131v-709h129zM631 569l-426 -266v-164h426v430zM686 1145h-149l-215 252h145z" />
<glyph unicode="&#xe1;" horiz-adv-x="1009" d="M799 139v709q0 86 -42 131t-147 45h-512v-258h131v119h402v-152l-451 -280q-94 -57 -112 -84q-27 -39 -27 -113v-76q0 -102 26.5 -132t60.5 -39t87 -9h713v139h-129zM631 139h-426v164l426 266v-430zM541 1397h145l-215 -252h-149z" />
<glyph unicode="&#xe2;" horiz-adv-x="1009" d="M928 139v-139h-713q-104 0 -141 41q-33 37 -33 139v76q0 74 18 100q27 39 121 97l451 280v152h-402v-119h-131v258h512q104 0 146.5 -45t42.5 -131v-709h129zM631 569l-426 -266v-164h426v430zM717 1145h-150l-141 164l-143 -164h-152l229 252h138z" />
<glyph unicode="&#xe3;" horiz-adv-x="1009" d="M928 139v-139h-713q-104 0 -141 41q-33 37 -33 139v76q0 74 18 100q27 39 121 97l451 280v152h-402v-119h-131v258h512q104 0 146.5 -45t42.5 -131v-709h129zM631 569l-426 -266v-164h426v430zM768 1307q-16 -47 -57 -86q-82 -72 -148 -72q-49 0 -113.5 38t-98.5 55.5 t-67.5 17.5t-56 -20.5t-51.5 -80.5l-84 62q14 45 55 82q76 74 125.5 73.5t91.5 -18t79.5 -39t68.5 -38.5t60.5 -17t65.5 30.5t52 69.5z" />
<glyph unicode="&#xe4;" horiz-adv-x="1009" d="M928 139v-139h-713q-104 0 -141 41q-33 37 -33 139v76q0 74 18 100q27 39 121 97l451 280v152h-402v-119h-131v258h512q104 0 146.5 -45t42.5 -131v-709h129zM631 569l-426 -266v-164h426v430zM326.5 1295.5q25.5 -27.5 25.5 -64.5t-25.5 -62.5t-62.5 -25.5t-62.5 25.5 t-25.5 62.5t26.5 64.5t62.5 27.5t61.5 -27.5zM629.5 1295.5q25.5 -27.5 25.5 -64.5t-25.5 -62.5t-62.5 -25.5t-62.5 25.5t-25.5 62.5t26.5 64.5t62.5 27.5t61.5 -27.5z" />
<glyph unicode="&#xe5;" horiz-adv-x="1009" d="M928 139v-139h-713q-104 0 -141 41q-33 37 -33 139v76q0 74 18 100q27 39 121 97l451 280v152h-402v-119h-131v258h512q104 0 146.5 -45t42.5 -131v-709h129zM631 569l-426 -266v-164h426v430zM293 1405q53 53 131 53q74 0 127 -53t53 -129t-53 -129t-129 -53 q-78 0 -129 53q-53 57 -53 131t53 127zM340 1278q0 -35 23.5 -59.5t58.5 -24.5t59.5 24.5t24.5 58.5t-24.5 58.5t-58.5 24.5t-58.5 -23.5t-24.5 -58.5z" />
<glyph unicode="&#xe6;" horiz-adv-x="1454" d="M291 766h-131v258h1001q100 0 145.5 -38t45.5 -142v-191l-541 -336v-178h379v119h162v-108q0 -61 -38 -105.5t-126 -44.5h-912q-104 0 -141 41q-33 37 -33 139v72q0 76 18.5 103.5t46.5 48t75 49.5l409 241v191h-360v-119zM811 483l377 232v170h-377v-402zM651 530 l-385 -227v-164h385v391z" />
<glyph unicode="&#xe7;" horiz-adv-x="872" d="M262 0q-160 6 -160 180v664q0 86 48.5 134t146.5 48h494v-260h-140v119h-385v-746h385v119h140v-258h-408v-86h76q78 0 114.5 -39t36.5 -104v-76q0 -57 -26.5 -98t-112.5 -41h-209v108h221v137h-221v199z" />
<glyph unicode="&#xe8;" horiz-adv-x="952" d="M102 823q0 203 211 203h346q100 0 145.5 -39t45.5 -143v-191l-584 -368v-146h422v119h162v-108q0 -61 -38 -105.5t-126 -44.5h-420q-88 0 -126 44t-38 106v673zM266 451l420 264v170h-420v-434zM657 1145h-149l-215 252h145z" />
<glyph unicode="&#xe9;" horiz-adv-x="952" d="M313 1026q-211 0 -211 -203v-673q0 -61 38 -105.5t126 -44.5h420q88 0 126 44t38 106v108h-162v-119h-422v146l584 368v191q0 104 -45 143t-146 39h-346zM266 885h420v-170l-420 -264v434zM512 1397h145l-215 -252h-149z" />
<glyph unicode="&#xea;" horiz-adv-x="952" d="M102 823q0 203 211 203h346q100 0 145.5 -39t45.5 -143v-191l-584 -368v-146h422v119h162v-108q0 -61 -38 -105.5t-126 -44.5h-420q-88 0 -126 44t-38 106v673zM266 451l420 264v170h-420v-434zM768 1145h-150l-141 164l-143 -164h-152l230 252h137z" />
<glyph unicode="&#xeb;" horiz-adv-x="952" d="M102 823q0 203 211 203h346q100 0 145.5 -39t45.5 -143v-191l-584 -368v-146h422v119h162v-108q0 -61 -38 -105.5t-126 -44.5h-420q-88 0 -126 44t-38 106v673zM266 451l420 264v170h-420v-434zM386 1295.5q26 -27.5 26 -64.5t-26 -62.5t-62.5 -25.5t-62 25.5t-25.5 62.5 t26.5 64.5t62 27.5t61.5 -27.5zM689.5 1295.5q25.5 -27.5 25.5 -64.5t-25.5 -62.5t-62.5 -25.5t-62.5 25.5t-25.5 62.5t26.5 64.5t62.5 27.5t61.5 -27.5z" />
<glyph unicode="&#xec;" horiz-adv-x="614" d="M399 139h133v-139h-430v139h129v746h-129v139h297v-885zM489 1145h-149l-215 252h145z" />
<glyph unicode="&#xed;" horiz-adv-x="614" d="M399 1024h-297v-139h129v-746h-129v-139h430v139h-133v885zM344 1397h145l-215 -252h-149z" />
<glyph unicode="&#xee;" horiz-adv-x="630" d="M416 139h133v-139h-430v139h129v746h-129v139h297v-885zM584 1145h-150l-141 164l-143 -164h-152l229 252h138z" />
<glyph unicode="&#xef;" horiz-adv-x="614" d="M399 139h133v-139h-430v139h129v746h-129v139h297v-885zM218.5 1295.5q25.5 -27.5 25.5 -64.5t-25.5 -62.5t-62.5 -25.5t-62.5 25.5t-25.5 62.5t26.5 64.5t62.5 27.5t61.5 -27.5zM521.5 1295.5q25.5 -27.5 25.5 -64.5t-25.5 -62.5t-62.5 -25.5t-62.5 25.5t-25.5 62.5 t26.5 64.5t62.5 27.5t61.5 -27.5z" />
<glyph unicode="&#xf0;" horiz-adv-x="942" d="M68 1014l233 192l-225 92v140l346 -131l219 180h178l-276 -225l133 -50q106 -41 141 -99t35 -132v-801q0 -88 -37 -129q-45 -49 -149 -49h-377q-160 0 -180 104q-6 33 -7 74v223q0 82 44 137.5t143 110.5l413 264v52q0 33 -13 64.5t-71 49.5l-200 78l-180 -145h-170z M702 137v613l-448 -281v-332h448z" />
<glyph unicode="&#xf1;" horiz-adv-x="1163" d="M791 1044q160 0 159 -157v-748h131v-139h-395v139h98v762l-407 -256v-506h100v-139h-395v139h129v748h-129v137h295v-213l340 213q33 20 74 20zM920 1307q-16 -47 -58 -86q-82 -72 -147 -72q-49 0 -113.5 38t-98.5 55.5t-68 17.5t-56.5 -20.5t-50.5 -80.5l-84 62 q14 45 55 82q76 74 125 73.5t91 -18t80 -39t68.5 -38.5t60.5 -17t65.5 30.5t52.5 69.5z" />
<glyph unicode="&#xf2;" horiz-adv-x="923" d="M272 0q-104 0 -147 48t-43 134v660q0 82 38 132t152 50h379q113 0 152 -50t39 -132v-660q0 -86 -43 -134t-148 -48h-379zM248 139h428v746h-428v-746zM643 1145h-149l-215 252h145z" />
<glyph unicode="&#xf3;" horiz-adv-x="923" d="M651 0q104 0 147.5 48t43.5 134v660q0 82 -39 132t-152 50h-379q-115 0 -152.5 -50t-37.5 -132v-660q0 -86 43 -134t147 -48h379zM248 885h428v-746h-428v746zM498 1397h145l-215 -252h-149z" />
<glyph unicode="&#xf4;" horiz-adv-x="923" d="M272 0q-104 0 -147 48t-43 134v660q0 82 38 132t152 50h379q113 0 152 -50t39 -132v-660q0 -86 -43 -134t-148 -48h-379zM248 139h428v746h-428v-746zM754 1145h-150l-141 164l-144 -164h-151l229 252h138z" />
<glyph unicode="&#xf5;" horiz-adv-x="923" d="M272 0q-104 0 -147 48t-43 134v660q0 82 38 132t152 50h379q113 0 152 -50t39 -132v-660q0 -86 -43 -134t-148 -48h-379zM248 139h428v746h-428v-746zM799 1307q-16 -47 -58 -86q-82 -72 -147 -72q-49 0 -113.5 38t-98.5 55.5t-67.5 17.5t-56 -20.5t-51.5 -80.5l-84 62 q14 45 55 82q76 74 125 73.5t91 -18t80 -39t68.5 -38.5t60.5 -17t66 30.5t52 69.5z" />
<glyph unicode="&#xf6;" horiz-adv-x="923" d="M272 0q-104 0 -147 48t-43 134v660q0 82 38 132t152 50h379q113 0 152 -50t39 -132v-660q0 -86 -43 -134t-148 -48h-379zM248 139h428v746h-428v-746zM371.5 1295.5q25.5 -27.5 25.5 -64.5t-25.5 -62.5t-62.5 -25.5t-62.5 25.5t-25.5 62.5t26.5 64.5t62.5 27.5 t61.5 -27.5zM674.5 1295.5q25.5 -27.5 25.5 -64.5t-25.5 -62.5t-62.5 -25.5t-62.5 25.5t-25.5 62.5t27 64.5t62.5 27.5t61 -27.5z" />
<glyph unicode="&#xf7;" horiz-adv-x="741" d="M31 860h674v-135h-674v135zM439.5 598q29.5 -33 29.5 -76t-29.5 -72.5t-72.5 -29.5t-74 29.5t-31 72.5t32 76t74 33t71.5 -33zM439.5 1144q29.5 -32 29.5 -77t-29.5 -74.5t-72.5 -29.5t-74 29.5t-31 74.5t32 77t74 32t71.5 -32z" />
<glyph unicode="&#xf8;" horiz-adv-x="923" d="M244 0q-90 8 -126 56t-36 126v660q0 82 38 132t152 50h279l39 129h145l-39 -131q86 -10 116 -59.5t30 -120.5v-660q0 -86 -43 -134t-148 -48h-262l-51 -174h-145zM248 139h37l223 746h-260v-746zM655 885l-223 -746h244v746h-21z" />
<glyph unicode="&#xf9;" horiz-adv-x="1163" d="M373 -4q-160 0 -160 158v733h-131v139h297v-887l407 256v492h-100v139h266v-887h129v-139h-295v229l-340 -213q-32 -20 -73 -20zM764 1145h-150l-215 252h146z" />
<glyph unicode="&#xfa;" horiz-adv-x="1163" d="M213 154q0 -158 160 -158q41 0 73 20l340 213v-229h295v139h-129v887h-266v-139h100v-492l-407 -256v887h-297v-139h131v-733zM618 1397h146l-215 -252h-150z" />
<glyph unicode="&#xfb;" horiz-adv-x="1163" d="M373 -4q-160 0 -160 158v733h-131v139h297v-887l407 256v492h-100v139h266v-887h129v-139h-295v229l-340 -213q-32 -20 -73 -20zM874 1145h-149l-141 164l-144 -164h-151l229 252h137z" />
<glyph unicode="&#xfc;" horiz-adv-x="1163" d="M373 -4q-160 0 -160 158v733h-131v139h297v-887l407 256v492h-100v139h266v-887h129v-139h-295v229l-340 -213q-32 -20 -73 -20zM492.5 1295.5q25.5 -27.5 25.5 -64.5t-25.5 -62.5t-62.5 -25.5t-62.5 25.5t-25.5 62.5t26.5 64.5t62.5 27.5t61.5 -27.5zM795.5 1295.5 q25.5 -27.5 25.5 -64.5t-25.5 -62.5t-62.5 -25.5t-62.5 25.5t-25.5 62.5t26.5 64.5t62.5 27.5t61.5 -27.5z" />
<glyph unicode="&#xfd;" horiz-adv-x="1054" d="M686 1024v-139h100v-488l-407 -256v883h-297v-139h131v-772q0 -70 35 -101.5t82 -31.5t94 28l360 223v-538h-354v137h-139v-279h473q104 0 146 45.5t42 131.5v1296h-266zM563 1397h146l-215 -252h-150z" />
<glyph unicode="&#xfe;" horiz-adv-x="1079" d="M379 139h434v760l-434 -272v-488zM84 -373h127v1768h-129v141h297v-745l354 223q49 31 104.5 30.5t97.5 -34t42 -99.5v-718q0 -94 -27 -130q-51 -63 -157 -63h-414v-373h135v-139h-430v139z" />
<glyph unicode="&#xff;" horiz-adv-x="1054" d="M952 1024v-1296q0 -86 -42 -131.5t-146 -45.5h-473v279h139v-137h354v538l-360 -223q-47 -29 -94 -28q-47 0 -82 31.5t-35 101.5v772h-131v139h297v-883l407 256v488h-100v139h266zM437.5 1295.5q25.5 -27.5 25.5 -64.5t-25.5 -62.5t-62.5 -25.5t-62.5 25.5t-25.5 62.5 t26.5 64.5t62.5 27.5t61.5 -27.5zM740.5 1295.5q25.5 -27.5 25.5 -64.5t-25.5 -62.5t-62.5 -25.5t-62.5 25.5t-25.5 62.5t26.5 64.5t62.5 27.5t61.5 -27.5z" />
<glyph unicode="&#x152;" horiz-adv-x="1677" d="M1554 1536v-379h-139v240h-477v-545l352 223v-166l-352 -219v-551h477v240h139v-379h-1187q-197 0 -232 147q-12 45 -12 101v1016q0 137 45 198q51 74 182 74h1204zM287 139h483v445l-129 -82v166l129 82v647h-483v-1258z" />
<glyph unicode="&#x153;" horiz-adv-x="1523" d="M313 0q-104 0 -147 48t-43 134v660q0 82 38 132t152 50h897q100 0 145.5 -38t45.5 -142v-191l-561 -368v-146h399v119h162v-108q0 -61 -38 -105.5t-126 -44.5h-924zM289 139h387v746h-387v-746zM842 451l395 264v170h-397z" />
<glyph unicode="&#x178;" horiz-adv-x="1138" d="M1087 1536v-139h-77l-359 -641v-617h133v-139h-430v139h129v617l-340 641h-92v139h332v-139h-74l260 -500l267 500h-74v139h325zM480.5 1807.5q25.5 -27.5 25.5 -64.5t-25.5 -62.5t-62.5 -25.5t-62.5 25.5t-25.5 62.5t26.5 64.5t62.5 27.5t61.5 -27.5zM783.5 1807.5 q25.5 -27.5 25.5 -64.5t-25.5 -62.5t-62.5 -25.5t-62.5 25.5t-25.5 62.5t26.5 64.5t62.5 27.5t61.5 -27.5z" />
<glyph unicode="&#x2c6;" horiz-adv-x="598" d="M592 1145h-150l-141 164l-143 -164h-152l230 252h137z" />
<glyph unicode="&#x2dc;" horiz-adv-x="686" d="M682 1307q-16 -47 -57 -86q-82 -72 -148 -72q-49 0 -113.5 38t-98.5 55.5t-67.5 17.5t-56 -20.5t-51.5 -80.5l-84 62q14 45 55 82q76 74 125.5 73.5t91 -18t79.5 -39t69 -38.5t60.5 -17t65.5 30.5t52 69.5z" />
<glyph unicode="&#x2000;" horiz-adv-x="985" />
<glyph unicode="&#x2001;" horiz-adv-x="1970" />
<glyph unicode="&#x2002;" horiz-adv-x="985" />
<glyph unicode="&#x2003;" horiz-adv-x="1970" />
<glyph unicode="&#x2004;" horiz-adv-x="656" />
<glyph unicode="&#x2005;" horiz-adv-x="492" />
<glyph unicode="&#x2006;" horiz-adv-x="328" />
<glyph unicode="&#x2007;" horiz-adv-x="328" />
<glyph unicode="&#x2008;" horiz-adv-x="246" />
<glyph unicode="&#x2009;" horiz-adv-x="394" />
<glyph unicode="&#x200a;" horiz-adv-x="109" />
<glyph unicode="&#x2010;" horiz-adv-x="923" d="M760 860v-135h-596v135h596z" />
<glyph unicode="&#x2011;" horiz-adv-x="923" d="M760 860v-135h-596v135h596z" />
<glyph unicode="&#x2012;" horiz-adv-x="923" d="M760 860v-135h-596v135h596z" />
<glyph unicode="&#x2013;" horiz-adv-x="1236" d="M1073 860v-135h-909v135h909z" />
<glyph unicode="&#x2014;" horiz-adv-x="1499" d="M1354 860v-135h-1190v135h1190z" />
<glyph unicode="&#x2018;" horiz-adv-x="362" d="M154 1044h-150l154 492h151z" />
<glyph unicode="&#x2019;" horiz-adv-x="362" d="M154 1044h-150l154 492h151z" />
<glyph unicode="&#x201a;" horiz-adv-x="387" d="M170 -305h-150l154 491h152z" />
<glyph unicode="&#x201c;" horiz-adv-x="702" d="M154 1044h-150l154 492h151zM516 1044h-149l153 492h152z" />
<glyph unicode="&#x201d;" horiz-adv-x="702" d="M154 1044h-150l154 492h151zM516 1044h-149l153 492h152z" />
<glyph unicode="&#x201e;" horiz-adv-x="749" d="M170 -307h-150l154 491h152zM532 -307h-149l154 491h151z" />
<glyph unicode="&#x2022;" horiz-adv-x="847" d="M178 782q0 53 20.5 101.5t55.5 83.5q82 78 189.5 77.5t181.5 -77.5q76 -78 75 -185q0 -109 -75 -188q-74 -78 -183 -78q-111 0 -184 78q-80 82 -80 188z" />
<glyph unicode="&#x2026;" horiz-adv-x="1247" d="M259 170q30 -33 30 -76t-30 -72.5t-73 -29.5t-73.5 29.5t-30.5 72.5t31.5 76t73.5 33t72 -33zM697.5 170q29.5 -33 29.5 -76t-29.5 -72.5t-72.5 -29.5t-74 29.5t-31 72.5t32 76t74 33t71.5 -33zM1135.5 170q29.5 -33 29.5 -76t-29.5 -72.5t-72.5 -29.5t-74 29.5t-31 72.5 t32 76t74 33t71.5 -33z" />
<glyph unicode="&#x202f;" horiz-adv-x="394" />
<glyph unicode="&#x2039;" horiz-adv-x="514" d="M494 233l-113 -83l-320 403l316 434l117 -82l-261 -352z" />
<glyph unicode="&#x203a;" horiz-adv-x="514" d="M20 903l113 84l320 -403l-316 -434l-117 81l261 353z" />
<glyph unicode="&#x205f;" horiz-adv-x="492" />
<glyph unicode="&#x20ac;" horiz-adv-x="1157" d="M82 1026h123v289q0 150 104 201q39 20 97 20h649v-276h-140v137h-542v-371h508v-137h-508v-219h508v-138h-508v-393h542v131h140v-270h-629q-172 0 -209 135q-12 39 -12 84v313h-123v138h123v219h-123v137z" />
<glyph unicode="&#x2122;" horiz-adv-x="1552" d="M147 971h105v450h-96v-125h-115v240h549v-240h-111v125h-100v-450h104v-111h-336v111zM1511 860h-299v111h91v413l-179 -360h-82l-176 356v-409h92v-111h-299v111h89v454h-89v111h256l170 -336l170 336h256v-111h-86v-454h86v-111z" />
<glyph unicode="&#x25fc;" horiz-adv-x="1024" d="M0 1024h1024v-1024h-1024v1024z" />
</font>
</defs>
</svg>
